<?xml version="1.0" encoding="utf-8"?><!DOCTYPE svg PUBLIC "-//W3C//DTD SVG 1.1//EN" "http://www.w3.org/Graphics/SVG/1.1/DTD/svg11.dtd"><svg version="1.1" baseProfile="full" xmlns="http://www.w3.org/2000/svg" xmlns:xlink="http://www.w3.org/1999/xlink" xmlns:ev="http://www.w3.org/2001/xml-events"   height="15px"   width="19px" ><defs><filter id="Filter_0">  <feFlood flood-color="rgb( 204, 204, 204 )" flood-opacity="1" result="floodOut" />  <feComposite operator="atop" in="floodOut" in2="SourceGraphic" result="compOut" />  <feBlend mode="normal" in="compOut" in2="SourceGraphic" /></filter></defs><g filter="url(#Filter_0)"><path fill="rgb( 144, 144, 144 )" d="M10,15 C10,15 10,14 10,14 C10,14 17.7140000000001,8 17.7140000000001,8 C17.7140000000001,8 0,8 0,8 C0,8 0,7 0,7 C0,7 17.7140000000001,7 17.7140000000001,7 C17.7140000000001,7 10,1 10,1 C10,1 10,0 10,0 C10,0 19,7 19,7 C19,7 19,8 19,8 C19,8 10,15 10,15 Z "/></g></svg>