<?xml version="1.0" encoding="utf-8"?><!DOCTYPE svg PUBLIC "-//W3C//DTD SVG 1.1//EN" "http://www.w3.org/Graphics/SVG/1.1/DTD/svg11.dtd"><svg version="1.1" baseProfile="full" xmlns="http://www.w3.org/2000/svg" xmlns:xlink="http://www.w3.org/1999/xlink" xmlns:ev="http://www.w3.org/2001/xml-events"   height="15px"   width="19px" ><defs><filter id="Filter_0">  <feFlood flood-color="rgb( 204, 204, 204 )" flood-opacity="1" result="floodOut" />  <feComposite operator="atop" in="floodOut" in2="SourceGraphic" result="compOut" />  <feBlend mode="normal" in="compOut" in2="SourceGraphic" /></filter></defs><g filter="url(#Filter_0)"><path fill="rgb( 144, 144, 144 )" d="M19,8 C19,8 1.286,8 1.286,8 C1.286,8 9,14 9,14 C9,14 9,15 9,15 C9,15 0,8 0,8 C0,8 0,7 0,7 C0,7 9,0 9,0 C9,0 9,1 9,1 C9,1 1.286,7 1.286,7 C1.286,7 19,7 19,7 C19,7 19,8 19,8 Z "/></g></svg>