<?xml version="1.0" encoding="utf-8"?><!DOCTYPE svg PUBLIC "-//W3C//DTD SVG 1.1//EN" "http://www.w3.org/Graphics/SVG/1.1/DTD/svg11.dtd"><svg version="1.1" baseProfile="full" xmlns="http://www.w3.org/2000/svg" xmlns:xlink="http://www.w3.org/1999/xlink" xmlns:ev="http://www.w3.org/2001/xml-events"   height="16px"   width="16px" ><path fill="rgb( 53, 53, 53 )" d="M15.6880000000001,14.494 C15.6880000000001,14.494 14.502,15.679 14.502,15.679 C14.502,15.679 7.98399999999992,9.161 7.98399999999992,9.161 C7.98399999999992,9.161 1.46000000000004,15.684 1.46000000000004,15.684 C1.46000000000004,15.684 0.27500000000009,14.498 0.27500000000009,14.498 C0.27500000000009,14.498 6.798,7.97500000000002 6.798,7.97500000000002 C6.798,7.97500000000002 0.28400000000011,1.46100000000001 0.28400000000011,1.46100000000001 C0.28400000000011,1.46100000000001 1.47000000000003,0.27600000000001 1.47000000000003,0.27600000000001 C1.47000000000003,0.27600000000001 7.98399999999992,6.79000000000002 7.98399999999992,6.79000000000002 C7.98399999999992,6.79000000000002 14.4929999999999,0.27999999999997 14.4929999999999,0.27999999999997 C14.4929999999999,0.27999999999997 15.6790000000001,1.46499999999997 15.6790000000001,1.46499999999997 C15.6790000000001,1.46499999999997 9.1690000000001,7.97500000000002 9.1690000000001,7.97500000000002 C9.1690000000001,7.97500000000002 15.6880000000001,14.494 15.6880000000001,14.494 Z "/></svg>