<?xml version="1.0" encoding="UTF-8" standalone="no"?>
<svg width="532px" height="149px" viewBox="0 0 532 149" version="1.1" xmlns="http://www.w3.org/2000/svg" xmlns:xlink="http://www.w3.org/1999/xlink" xmlns:sketch="http://www.bohemiancoding.com/sketch/ns">
    <!-- Generator: Sketch 3.3.2 (12043) - http://www.bohemiancoding.com/sketch -->
    <title>Slice 1</title>
    <desc>Created with Sketch.</desc>
    <defs></defs>
    <g id="Page-1" stroke="none" stroke-width="1" fill="none" fill-rule="evenodd" sketch:type="MSPage">
        <g id="logo" sketch:type="MSLayerGroup" transform="translate(0.000000, 1.000000)">
            <g id="Group" sketch:type="MSShapeGroup">
                <g id="Shape" stroke="#010101" fill="#FFFFFF">
                    <path d="M437.9,27.7 L437.9,0.1 L405.7,27.7 L10.8,27.7 L10.8,108.5 L531.5,108.5 L531.5,27.7 L437.9,27.7 Z"></path>
                    <path d="M521.5,37.1 L0.8,37.1 L0.8,118 L94.7,118 L94.7,146 L127.4,118 L521.5,118 L521.5,37.1 Z"></path>
                </g>
                <g transform="translate(56.000000, 63.000000)" id="Shape" fill="#010101">
                    <path d="M26.1,0.6 L26.1,18.5 C26.1,22.4 25,25.4 22.8,27.6 C20.6,29.7 17.4,30.8 13.3,30.8 C9.3,30.8 6.2,29.8 4,27.7 C1.8,25.6 0.8,22.6 0.8,18.7 L0.8,0.6 L8.8,0.6 L8.8,18.1 C8.8,20.2 9.2,21.7 10,22.7 C10.8,23.7 11.9,24.1 13.5,24.1 C15.1,24.1 16.3,23.6 17.1,22.7 C17.8,21.8 18.2,20.2 18.2,18.1 L18.2,0.7 L26.1,0.7 L26.1,0.6 Z"></path>
                    <path d="M61.7,30.4 L52.7,30.4 L46.9,19 L44.5,20.4 L44.5,30.4 L36.5,30.4 L36.5,0.6 L44.5,0.6 L44.5,13.5 C44.9,12.7 45.7,11.4 46.9,9.7 L53.1,0.6 L61.8,0.6 L52.5,13.9 L61.7,30.4 L61.7,30.4 Z"></path>
                    <path d="M77,19.6 L77,30.4 L69,30.4 L69,0.6 L78.7,0.6 C86.7,0.6 90.8,3.5 90.8,9.4 C90.8,12.8 89.1,15.5 85.8,17.4 L94.4,30.4 L85.3,30.4 L79,19.6 L77,19.6 L77,19.6 Z M77,13.5 L78.5,13.5 C81.3,13.5 82.7,12.3 82.7,9.8 C82.7,7.8 81.3,6.7 78.6,6.7 L77,6.7 L77,13.5 L77,13.5 Z"></path>
                    <path d="M119.4,30.4 L117.9,24.8 L108.3,24.8 L106.8,30.4 L98,30.4 L107.7,0.5 L118.4,0.5 L128.2,30.4 L119.4,30.4 L119.4,30.4 Z M116.3,18.2 L115,13.3 C114.7,12.2 114.3,10.8 113.9,9.1 C113.5,7.4 113.2,6.1 113.1,5.4 C113,6.1 112.7,7.2 112.4,8.8 C112,10.4 111.2,13.5 110,18.2 L116.3,18.2 L116.3,18.2 Z"></path>
                    <path d="M135.5,30.4 L135.5,0.6 L143.5,0.6 L143.5,30.4 L135.5,30.4 L135.5,30.4 Z"></path>
                    <path d="M182.2,30.4 L171.7,30.4 L160.9,9.4 L160.7,9.4 C161,12.7 161.1,15.2 161.1,17 L161.1,30.4 L154,30.4 L154,0.6 L164.4,0.6 L175.2,21.3 L175.3,21.3 C175.1,18.3 175,15.9 175,14.1 L175,0.6 L182.1,0.6 L182.1,30.4 L182.2,30.4 Z"></path>
                    <path d="M210.3,30.4 L192.7,30.4 L192.7,0.6 L210.3,0.6 L210.3,7.1 L200.7,7.1 L200.7,11.8 L209.6,11.8 L209.6,18.3 L200.7,18.3 L200.7,23.9 L210.3,23.9 L210.3,30.4 L210.3,30.4 Z"></path>
                    <path d="M259.7,0.6 L259.7,18.5 C259.7,22.4 258.6,25.4 256.4,27.6 C254.2,29.7 251,30.8 246.9,30.8 C242.9,30.8 239.8,29.8 237.6,27.7 C235.4,25.6 234.4,22.6 234.4,18.7 L234.4,0.6 L242.4,0.6 L242.4,18.1 C242.4,20.2 242.8,21.7 243.6,22.7 C244.4,23.7 245.5,24.1 247.1,24.1 C248.7,24.1 249.9,23.6 250.7,22.7 C251.4,21.8 251.8,20.2 251.8,18.1 L251.8,0.7 L259.7,0.7 L259.7,0.6 Z"></path>
                    <path d="M298.3,30.4 L287.8,30.4 L277,9.4 L276.8,9.4 C277.1,12.7 277.2,15.2 277.2,17 L277.2,30.4 L270.1,30.4 L270.1,0.6 L280.5,0.6 L291.3,21.3 L291.4,21.3 C291.2,18.3 291.1,15.9 291.1,14.1 L291.1,0.6 L298.2,0.6 L298.2,30.4 L298.3,30.4 Z"></path>
                    <path d="M308.8,30.4 L308.8,0.6 L316.8,0.6 L316.8,30.4 L308.8,30.4 L308.8,30.4 Z"></path>
                    <path d="M340.4,30.4 L332.4,30.4 L332.4,7.2 L325.2,7.2 L325.2,0.6 L347.6,0.6 L347.6,7.2 L340.4,7.2 L340.4,30.4 L340.4,30.4 Z"></path>
                    <path d="M373.6,30.4 L356,30.4 L356,0.6 L373.6,0.6 L373.6,7.1 L364,7.1 L364,11.8 L372.9,11.8 L372.9,18.3 L364,18.3 L364,23.9 L373.6,23.9 L373.6,30.4 L373.6,30.4 Z"></path>
                    <path d="M408,14.9 C408,19.9 406.6,23.7 403.9,26.4 C401.2,29.1 397.4,30.4 392.4,30.4 L382.8,30.4 L382.8,0.6 L393,0.6 C397.7,0.6 401.4,1.8 404,4.3 C406.7,6.7 408,10.3 408,14.9 L408,14.9 Z M399.7,15.2 C399.7,12.5 399.2,10.4 398.1,9.1 C397,7.8 395.4,7.1 393.2,7.1 L390.9,7.1 L390.9,23.8 L392.7,23.8 C395.1,23.8 396.9,23.1 398,21.7 C399.2,20.2 399.7,18.1 399.7,15.2 L399.7,15.2 Z"></path>
                </g>
            </g>
        </g>
    </g>
</svg>