<?xml version="1.0" encoding="utf-8"?>
<!-- Generator: Adobe Illustrator 18.1.0, SVG Export Plug-In . SVG Version: 6.00 Build 0)  -->
<svg version="1.1" id="Rectangle_10_copy_5_xA0_Image"
	 xmlns="http://www.w3.org/2000/svg" xmlns:xlink="http://www.w3.org/1999/xlink" x="0px" y="0px" viewBox="0 0 530.7 145.8"
	 enable-background="new 0 0 530.7 145.8" xml:space="preserve">
<g>
	<g>
		<polygon fill="#FFFFFF" stroke="#000000" stroke-miterlimit="10" points="437.1,27.5 437.1,0 404.9,27.5 10,27.5 10,108.3 
			530.7,108.3 530.7,27.5 		"/>
		<polygon fill="#FFFFFF" stroke="#000000" stroke-miterlimit="10" points="520.6,37 0,37 0,117.8 93.8,117.8 93.8,145.8 
			126.6,117.8 520.6,117.8 		"/>
	</g>
	<g>
		<path d="M71.4,70c-3.7,0-5.9,1.9-6.5,5.7h11.8v6.5H64.9c0.2,1.7,0.9,3,2,3.9c1.1,0.9,2.7,1.4,4.7,1.4c1.2,0,2.5-0.1,3.8-0.4
			c1.3-0.3,3.1-0.8,5.2-1.4v6.7c-1.6,0.7-3.2,1.1-4.5,1.4c-1.4,0.3-3,0.4-4.8,0.4c-4.7,0-8.3-1.3-10.9-3.9
			c-2.5-2.6-3.8-6.4-3.8-11.3c0-3,0.6-5.7,1.9-8c1.2-2.3,3-4.1,5.3-5.4c2.3-1.3,5-1.9,8.1-1.9c1.8,0,3.4,0.2,5,0.5
			c1.6,0.4,3.2,0.9,4.8,1.7l-2.7,6.5C76.4,70.7,73.9,70,71.4,70z"/>
		<path d="M120.1,102.8h-7.8v-9.3H95v9.3h-7.8V87h2.4c1.8-3,3.2-6.5,4.4-10.5c1.1-4,1.9-8.2,2.2-12.7H116V87h4V102.8z M108,87V70.4
			h-5.3c-0.6,5.8-2.1,11.3-4.6,16.6H108z"/>
		<path d="M128.2,63.8h7.1v12.8c0,1.4-0.1,4.1-0.3,8.1h0.2l11.8-20.9h9.9v29.8h-7.1V81.1c0-1.9,0.1-4.7,0.4-8.5h-0.2L138,93.6h-9.9
			V63.8z"/>
		<path d="M192.7,93.6h-8V81.4h-9.3v12.1h-8V63.8h8v11h9.3v-11h8V93.6z"/>
		<path d="M221.4,93.6l-1.5-5.6h-9.6l-1.5,5.6H200l9.7-29.9h10.7l9.8,29.9H221.4z M218.3,81.4l-1.3-4.9c-0.3-1.1-0.7-2.5-1.1-4.2
			c-0.4-1.7-0.7-3-0.8-3.7c-0.1,0.7-0.4,1.8-0.7,3.4c-0.4,1.6-1.2,4.7-2.4,9.4H218.3z"/>
		<path d="M256.2,94c-1.9,0-3.6-0.2-5.2-0.6V87c1.3,0.5,2.9,0.8,4.8,0.8c0.8,0,1.5-0.2,2.1-0.6c0.6-0.4,1-1.1,1.4-2l-9.7-21.3h8.6
			l3.6,9.1c0.1,0.4,0.3,0.8,0.5,1.3c0.2,0.5,0.4,1,0.6,1.5s0.4,1,0.5,1.6c0.2,0.5,0.3,1,0.4,1.3h0.3c0.5-1.8,1.1-4,2-6.5l3-8.3h8.6
			l-9,20.9c-1.1,2.6-2.2,4.5-3.3,5.8c-1.1,1.2-2.4,2.1-3.9,2.7C260.2,93.7,258.4,94,256.2,94z"/>
		<path d="M310.6,93.6h-9l-8.8-15.1v15.1h-8V63.8h8v14.4l8.5-14.4h8.8L300.9,78L310.6,93.6z"/>
		<path d="M339.3,73.3c0,3.3-1,5.9-2.9,7.7c-2,1.8-4.7,2.7-8.3,2.7h-2.2v9.9h-8V63.8H328c3.7,0,6.5,0.8,8.4,2.5
			C338.3,67.9,339.3,70.2,339.3,73.3z M325.8,77.1h1.5c1.2,0,2.2-0.3,2.9-1c0.7-0.7,1.1-1.6,1.1-2.8c0-2-1.1-3-3.3-3h-2.1V77.1z"/>
		<path d="M366.3,93.6l-1.5-5.6h-9.6l-1.5,5.6h-8.8l9.7-29.9h10.7l9.8,29.9H366.3z M363.2,81.4l-1.3-4.9c-0.3-1.1-0.7-2.5-1.1-4.2
			c-0.4-1.7-0.7-3-0.8-3.7c-0.1,0.7-0.4,1.8-0.7,3.4c-0.4,1.6-1.2,4.7-2.4,9.4H363.2z"/>
		<path d="M378,57.9c0-1,0.3-1.8,0.9-2.4c0.6-0.6,1.5-0.8,2.5-0.8c1.1,0,1.9,0.3,2.5,0.9c0.6,0.6,0.9,1.4,0.9,2.4
			c0,1-0.3,1.7-0.9,2.3c-0.6,0.6-1.5,0.9-2.5,0.9c-1.1,0-1.9-0.3-2.5-0.8C378.4,59.7,378,58.9,378,57.9z M382.4,93.6V63.8h8v29.8
			H382.4z M387.7,57.9c0-1,0.3-1.8,0.9-2.4c0.6-0.6,1.5-0.8,2.5-0.8c1.1,0,1.9,0.3,2.6,0.9c0.6,0.6,0.9,1.4,0.9,2.3
			c0,1-0.3,1.7-0.9,2.3c-0.6,0.6-1.5,0.9-2.6,0.9c-1.1,0-1.9-0.3-2.6-0.8C388,59.7,387.7,58.9,387.7,57.9z"/>
		<path d="M426.3,93.6h-8V81.4H409v12.1h-8V63.8h8v11h9.3v-11h8V93.6z"/>
		<path d="M455,93.6l-1.5-5.6h-9.6l-1.5,5.6h-8.8l9.7-29.9H454l9.8,29.9H455z M451.9,81.4l-1.3-4.9c-0.3-1.1-0.7-2.5-1.1-4.2
			c-0.4-1.7-0.7-3-0.8-3.7c-0.1,0.7-0.4,1.8-0.7,3.4c-0.4,1.6-1.2,4.7-2.4,9.4H451.9z"/>
	</g>
</g>
</svg>
