<?xml version="1.0" encoding="UTF-8" standalone="no"?>
<svg width="532px" height="149px" viewBox="0 0 532 149" version="1.1" xmlns="http://www.w3.org/2000/svg" xmlns:xlink="http://www.w3.org/1999/xlink" xmlns:sketch="http://www.bohemiancoding.com/sketch/ns">
    <!-- Generator: Sketch 3.3.2 (12043) - http://www.bohemiancoding.com/sketch -->
    <title>Slice 1</title>
    <desc>Created with Sketch.</desc>
    <defs></defs>
    <g id="Page-1" stroke="none" stroke-width="1" fill="none" fill-rule="evenodd" sketch:type="MSPage">
        <g id="logo-ru" sketch:type="MSLayerGroup" transform="translate(0.000000, 1.000000)">
            <g id="Group" sketch:type="MSShapeGroup">
                <g id="Shape" stroke="#010101" fill="#FFFFFF">
                    <path d="M437.9,27.7 L437.9,0.1 L405.7,27.7 L10.8,27.7 L10.8,108.5 L531.5,108.5 L531.5,27.7 L437.9,27.7 Z"></path>
                    <path d="M521.5,37.1 L0.8,37.1 L0.8,118 L94.7,118 L94.7,146 L127.4,118 L521.5,118 L521.5,37.1 Z"></path>
                </g>
                <g transform="translate(35.000000, 63.000000)" id="Shape" fill="#010101">
                    <path d="M18.5,30.4 L0.9,30.4 L0.9,0.6 L18.5,0.6 L18.5,7.1 L8.9,7.1 L8.9,11.8 L17.8,11.8 L17.8,18.3 L8.9,18.3 L8.9,23.9 L18.5,23.9 L18.5,30.4 L18.5,30.4 Z"></path>
                    <path d="M57.6,39.7 L49.8,39.7 L49.8,30.4 L32.6,30.4 L32.6,39.7 L24.8,39.7 L24.8,23.8 L27.2,23.8 C29,20.8 30.4,17.3 31.6,13.3 C32.7,9.3 33.5,5.1 33.8,0.6 L53.5,0.6 L53.5,23.8 L57.5,23.8 L57.5,39.7 L57.6,39.7 Z M45.5,23.8 L45.5,7.2 L40.2,7.2 C39.6,13 38.1,18.5 35.6,23.8 L45.5,23.8 L45.5,23.8 Z"></path>
                    <path d="M65.7,0.6 L72.8,0.6 L72.8,13.4 C72.8,14.8 72.7,17.5 72.5,21.5 L72.7,21.5 L84.5,0.6 L94.4,0.6 L94.4,30.4 L87.3,30.4 L87.3,17.9 C87.3,16 87.4,13.2 87.7,9.4 L87.5,9.4 L75.6,30.3 L65.7,30.3 L65.7,0.6 L65.7,0.6 Z"></path>
                    <path d="M130.2,30.4 L122.2,30.4 L122.2,18.3 L112.9,18.3 L112.9,30.4 L104.9,30.4 L104.9,0.6 L112.9,0.6 L112.9,11.6 L122.2,11.6 L122.2,0.6 L130.2,0.6 L130.2,30.4 L130.2,30.4 Z"></path>
                    <path d="M158.9,30.4 L157.4,24.8 L147.8,24.8 L146.3,30.4 L137.5,30.4 L147.2,0.5 L157.9,0.5 L167.7,30.4 L158.9,30.4 L158.9,30.4 Z M155.8,18.2 L154.5,13.3 C154.2,12.2 153.8,10.8 153.4,9.1 C153,7.4 152.7,6.1 152.6,5.4 C152.5,6.1 152.2,7.2 151.9,8.8 C151.5,10.4 150.7,13.5 149.5,18.2 L155.8,18.2 L155.8,18.2 Z"></path>
                    <path d="M186.3,19.6 L180.5,30.4 L171.4,30.4 L179.5,17.4 C178,16.6 176.9,15.4 176.1,14.1 C175.3,12.7 174.9,11.2 174.9,9.5 C174.9,3.6 178.9,0.7 187,0.7 L196.8,0.7 L196.8,30.5 L188.8,30.5 L188.8,19.7 L186.3,19.7 L186.3,19.6 Z M188.8,6.7 L187.1,6.7 C185.8,6.7 184.8,7 184.1,7.5 C183.4,8 183,8.8 183,9.8 C183,11 183.3,12 184,12.6 C184.7,13.2 185.8,13.5 187.3,13.5 L188.8,13.5 L188.8,6.7 L188.8,6.7 Z"></path>
                    <path d="M226,30.8 C224.1,30.8 222.4,30.6 220.8,30.2 L220.8,23.8 C222.1,24.3 223.7,24.6 225.6,24.6 C226.4,24.6 227.1,24.4 227.7,24 C228.3,23.6 228.7,22.9 229.1,22 L219.4,0.7 L228,0.7 L231.6,9.8 C231.7,10.2 231.9,10.6 232.1,11.1 C232.3,11.6 232.5,12.1 232.7,12.6 C232.9,13.1 233.1,13.6 233.2,14.2 C233.4,14.7 233.5,15.2 233.6,15.5 L233.9,15.5 C234.4,13.7 235,11.5 235.9,9 L238.9,0.7 L247.5,0.7 L238.5,21.6 C237.4,24.2 236.3,26.1 235.2,27.4 C234.1,28.6 232.8,29.5 231.3,30.1 C230.1,30.5 228.2,30.8 226,30.8 L226,30.8 Z"></path>
                    <path d="M280.4,30.4 L271.4,30.4 L262.6,15.3 L262.6,30.4 L254.6,30.4 L254.6,0.6 L262.6,0.6 L262.6,15 L271.1,0.6 L279.9,0.6 L270.8,14.8 L280.4,30.4 L280.4,30.4 Z"></path>
                    <path d="M309.1,10.1 C309.1,13.4 308.1,16 306.2,17.8 C304.2,19.6 301.5,20.5 297.9,20.5 L295.7,20.5 L295.7,30.4 L287.7,30.4 L287.7,0.6 L297.9,0.6 C301.6,0.6 304.4,1.4 306.3,3.1 C308.1,4.7 309.1,7.1 309.1,10.1 L309.1,10.1 Z M295.6,14 L297.1,14 C298.3,14 299.3,13.7 300,13 C300.7,12.3 301.1,11.4 301.1,10.2 C301.1,8.2 300,7.2 297.8,7.2 L295.7,7.2 L295.7,14 L295.6,14 Z"></path>
                    <path d="M336.1,30.4 L334.6,24.8 L325,24.8 L323.5,30.4 L314.7,30.4 L324.4,0.5 L335.1,0.5 L344.9,30.4 L336.1,30.4 L336.1,30.4 Z M333,18.2 L331.7,13.3 C331.4,12.2 331,10.8 330.6,9.1 C330.2,7.4 329.9,6.1 329.8,5.4 C329.7,6.1 329.4,7.2 329.1,8.8 C328.7,10.4 327.9,13.5 326.7,18.2 L333,18.2 L333,18.2 Z"></path>
                    <path d="M352.2,0.6 L359.3,0.6 L359.3,13.4 C359.3,14.8 359.2,17.5 359,21.5 L359.2,21.5 L371,0.6 L380.9,0.6 L380.9,30.4 L373.8,30.4 L373.8,17.9 C373.8,16 373.9,13.2 374.2,9.4 L374,9.4 L362,30.4 L352.1,30.4 L352.1,0.6 L352.2,0.6 Z"></path>
                    <path d="M416.7,30.4 L408.7,30.4 L408.7,18.3 L399.4,18.3 L399.4,30.4 L391.4,30.4 L391.4,0.6 L399.4,0.6 L399.4,11.6 L408.7,11.6 L408.7,0.6 L416.7,0.6 L416.7,30.4 L416.7,30.4 Z"></path>
                    <path d="M445.4,30.4 L443.9,24.8 L434.3,24.8 L432.8,30.4 L424,30.4 L433.7,0.5 L444.4,0.5 L454.2,30.4 L445.4,30.4 L445.4,30.4 Z M442.3,18.2 L441,13.3 C440.7,12.2 440.3,10.8 439.9,9.1 C439.5,7.4 439.2,6.1 439.1,5.4 C439,6.1 438.7,7.2 438.4,8.8 C438,10.4 437.2,13.5 436,18.2 L442.3,18.2 L442.3,18.2 Z"></path>
                </g>
            </g>
        </g>
    </g>
</svg>