<?xml version="1.0" encoding="utf-8"?><!DOCTYPE svg PUBLIC "-//W3C//DTD SVG 1.1//EN" "http://www.w3.org/Graphics/SVG/1.1/DTD/svg11.dtd"><svg version="1.1" baseProfile="full" xmlns="http://www.w3.org/2000/svg" xmlns:xlink="http://www.w3.org/1999/xlink" xmlns:ev="http://www.w3.org/2001/xml-events"   height="10px"   width="12px" ><path fill="rgb( 100, 100, 100 )" d="M0,10 C0,10 0,8 0,8 C0,8 12,8 12,8 C12,8 12,10 12,10 C12,10 0,10 0,10 ZM0,4 C0,4 12,4 12,4 C12,4 12,6 12,6 C12,6 0,6 0,6 C0,6 0,4 0,4 ZM0,0 C0,0 12,0 12,0 C12,0 12,2 12,2 C12,2 0,2 0,2 C0,2 0,0 0,0 Z "/></svg>