<?xml version="1.0" encoding="utf-8"?><!DOCTYPE svg PUBLIC "-//W3C//DTD SVG 1.1//EN" "http://www.w3.org/Graphics/SVG/1.1/DTD/svg11.dtd"><svg version="1.1" baseProfile="full" xmlns="http://www.w3.org/2000/svg" xmlns:xlink="http://www.w3.org/1999/xlink" xmlns:ev="http://www.w3.org/2001/xml-events"   height="24px"   width="15px" ><path fill-opacity="0" fill="rgb( 0, 0, 0 )" d="M8,24 C8,24 7,24 7,24 C3.13400000000001,24 0,20.866 0,17 C0,17 0,7 0,7 C0,3.13400000000001 3.13400000000001,0 7,0 C7,0 8,0 8,0 C11.866,0 15,3.13400000000001 15,7 C15,7 15,17 15,17 C15,20.866 11.866,24 8,24 ZM9,6 C9,5.44799999999998 8.55200000000002,5 8,5 C8,5 7,5 7,5 C6.44799999999998,5 6,5.44799999999998 6,6 C6,6 6,9 6,9 C6,9.55200000000002 6.44799999999998,10 7,10 C7,10 8,10 8,10 C8.55200000000002,10 9,9.55200000000002 9,9 C9,9 9,6 9,6 Z "/></svg>