<?xml version="1.0" encoding="utf-8"?><!DOCTYPE svg PUBLIC "-//W3C//DTD SVG 1.1//EN" "http://www.w3.org/Graphics/SVG/1.1/DTD/svg11.dtd"><svg version="1.1" baseProfile="full" xmlns="http://www.w3.org/2000/svg" xmlns:xlink="http://www.w3.org/1999/xlink" xmlns:ev="http://www.w3.org/2001/xml-events"   height="12px"   width="13px" ><path fill="rgb( 100, 100, 100 )" d="M7.64700000000001,10.5 C6.489,10.5 5.42400000000001,10.13 4.547,9.517 C4.547,9.517 2.387,11.636 2.387,11.636 C2.01600000000001,12 1.414,12 1.04300000000001,11.636 C1.04300000000001,11.636 0.371,10.977 0.371,10.977 C0,10.613 0,10.023 0.371,9.659 C0.371,9.659 2.739,7.337 2.739,7.337 C2.455,6.697 2.294,5.992 2.294,5.25 C2.294,2.351 4.691,0 7.64700000000001,0 C10.603,0 13,2.351 13,5.25 C13,8.15 10.603,10.5 7.64700000000001,10.5 ZM7.64700000000001,2.25 C5.958,2.25 4.58799999999999,3.593 4.58799999999999,5.25 C4.58799999999999,6.907 5.958,8.25 7.64700000000001,8.25 C9.336,8.25 10.706,6.907 10.706,5.25 C10.706,3.593 9.336,2.25 7.64700000000001,2.25 Z "/></svg>